<svg width="26" height="28" viewBox="0 0 26 28" fill="none" xmlns="http://www.w3.org/2000/svg">
<path d="M24.393 2.95229C23.4644 5.91662 16.9515 7.54339 14.4954 10.4113C12.186 13.1106 13.078 16.0869 13.7867 16.9184C14.5443 15.4724 15.9251 14.4361 17.3792 13.689C24.8818 9.82087 24.3319 4.95261 24.4053 3.75965C24.7107 6.03712 24.1364 8.17 22.1447 10.6282C21.717 11.1584 20.1652 12.484 18.6378 13.448C16.9393 14.5204 15.2652 15.4121 14.251 17.1956C13.9333 17.7499 13.7256 18.3403 13.5057 18.9308C13.3102 19.461 13.1146 20.0032 12.9191 20.5335C12.8214 20.1478 12.7358 19.7502 12.6625 19.3525C12.4181 18.0511 12.2959 16.7256 12.1982 15.4001C12.076 13.5685 12.2349 11.7248 12.7603 9.96547C13.7012 6.80833 14.9353 6.54323 14.8376 5.33821C14.8009 4.77186 14.1899 4.085 13.4812 5.00081C12.9314 5.69972 11.7461 10.7126 11.3428 13.0865C11.294 12.966 11.2329 12.8455 11.184 12.725C10.964 12.2429 10.7441 11.7609 10.4508 11.3151C9.48552 9.88112 8.03142 9.23041 6.54067 8.4351C5.19655 7.71209 3.82799 6.69988 3.42475 6.27813C1.60408 4.33805 0.993114 2.59078 1.10309 0.662758C1.22528 1.66292 1.07865 5.78407 7.60374 8.56765C8.87455 9.10991 10.0965 9.89317 10.8174 11.062C11.3551 10.3149 11.9294 7.77235 9.81544 5.65152C7.57931 3.39814 2.01953 2.43413 1.05421 0C-0.351008 2.33773 -0.399881 5.55512 1.20084 8.2182C1.48189 8.68816 1.83624 9.10991 2.23948 9.47142C3.75467 10.8692 5.89305 11.4838 7.93367 11.5079C8.38578 11.5079 9.65658 11.5681 10.2187 12.6768C10.4386 13.1226 10.6586 13.8095 10.8296 14.5566C10.9885 15.2675 11.0496 16.0026 11.0374 16.7377C11.0374 17.9186 11.1229 19.0874 11.3184 20.2442C11.685 22.4856 12.6625 23.8593 11.9049 26.4621C11.6972 27.1851 12.1127 27.9081 12.8703 27.9925C13.5423 28.0648 14.1411 27.6069 14.2388 26.9682C14.3488 26.2693 14.2999 25.4379 14.0311 24.5341C13.9944 24.3774 13.9455 24.1244 13.9089 23.9677C13.7989 22.4494 14.1411 19.955 14.6298 18.7862C15.2041 17.4125 16.7071 17.2438 17.2448 17.1956C19.6642 17.0028 22.1447 16.0749 23.8187 14.2915C24.2586 13.8215 24.6374 13.2913 24.9307 12.7129C26.5925 9.42321 26.2504 5.60332 24.3686 2.95229H24.393Z" fill="#004540"/>
</svg>
