<svg width="238" height="278" viewBox="0 0 238 278" fill="none" xmlns="http://www.w3.org/2000/svg">
<g opacity="0.03">
<path d="M138.068 198.164H143.45C152.256 198.164 159.421 190.999 159.421 182.193V177.888C159.421 169.082 152.256 161.917 143.45 161.917C134.644 161.917 127.48 169.082 127.48 177.888V187.575C127.48 193.413 132.23 198.163 138.068 198.163V198.164ZM134.511 177.888C134.511 172.958 138.521 168.948 143.45 168.948C148.379 168.948 152.389 172.958 152.389 177.888V182.193C152.389 187.122 148.379 191.132 143.45 191.132H138.068C137.125 191.131 136.221 190.756 135.554 190.089C134.887 189.422 134.512 188.518 134.511 187.575V177.888Z" fill="black"/>
<path d="M224.386 161.57C226.327 161.57 227.901 159.996 227.901 158.055C227.901 156.113 226.327 154.539 224.386 154.539C222.444 154.539 220.87 156.113 220.87 158.055C220.87 159.996 222.444 161.57 224.386 161.57Z" fill="black"/>
<path d="M237.583 184.207L235.747 175.384C235.326 173.374 234.785 171.391 234.128 169.445C233.828 168.564 233.191 167.837 232.357 167.425C231.522 167.012 230.558 166.948 229.676 167.245C228.794 167.543 228.065 168.178 227.651 169.012C227.236 169.845 227.17 170.809 227.465 171.692C228.033 173.371 228.499 175.082 228.863 176.817L230.647 185.387L225.736 222.468C224.813 226.197 219.877 223.597 217.5 222.933C213.609 221.372 210.2 218.784 207.599 215.354C203.792 210.333 202.185 204.134 203.075 197.896L204.633 186.963C204.944 186.351 202.866 178.213 202.772 177.41C204.26 169.928 205.008 162.317 205.003 154.687C205.003 151.759 204.892 148.857 204.675 145.983C207.428 147.3 210.037 148.899 212.46 150.755C213.072 151.224 213.822 151.478 214.594 151.478C215.329 151.478 216.046 151.248 216.643 150.82C217.241 150.392 217.69 149.788 217.926 149.091C218.162 148.395 218.174 147.642 217.96 146.939C217.746 146.235 217.317 145.617 216.733 145.17C212.79 142.15 208.428 139.722 203.784 137.961C199.976 111.94 187.428 88.7197 169.219 71.3924L173.348 72.5953C176.785 73.5997 180.348 74.1103 183.929 74.1117C200.338 74.1117 215.498 63.3521 220.314 46.824L222.05 40.8662C222.179 40.4229 222.22 39.9586 222.17 39.4996C222.119 39.0407 221.979 38.5962 221.757 38.1914C221.535 37.7867 221.235 37.4296 220.875 37.1407C220.515 36.8517 220.102 36.6365 219.658 36.5074L192.621 28.6289C187.123 27.0193 181.287 26.9564 175.756 28.4472C175.038 26.3354 174.064 24.3195 172.856 22.4449L159.81 2.16676C159.56 1.77838 159.236 1.44299 158.857 1.17978C158.478 0.916561 158.05 0.730668 157.599 0.632723C157.148 0.534777 156.682 0.526699 156.227 0.608948C155.773 0.691197 155.339 0.862162 154.951 1.11207L150.483 3.98668C143.084 8.74743 137.981 16.1039 136.115 24.7019C134.249 33.3 135.843 42.1101 140.603 49.5093L142.423 52.3377C126.692 44.247 108.868 39.6761 89.9946 39.6761C32.2329 39.6761 -15.7126 82.4801 -23.8062 138.033C-39.9611 144.235 -52.0484 158.358 -55.5921 175.383C-55.7181 176.563 -57.8948 184.983 -57.5064 185.981L-52.5523 223.39C-51.9335 228.063 -47.928 231.472 -43.3372 231.472C-41.8542 231.451 -40.3583 231.119 -38.9251 230.795L-36.7507 248.408C-35.9801 254.601 -33.1005 260.339 -28.5962 264.659C-26.554 266.614 -24.2272 268.25 -21.695 269.508L-18.5456 274.326C-14.8778 279.922 -9.94311 284.576 -4.14153 287.91C1.29774 291.027 7.45869 292.665 13.7278 292.66C21.6186 292.659 29.4397 290.069 35.8534 285.088C42.4165 291.36 50.885 294.506 59.3595 294.506C68.0776 294.506 76.7952 291.188 83.4321 284.551L87.6491 280.334C88.5509 279.431 89.3643 278.443 90.0784 277.386C90.7921 278.444 91.6056 279.431 92.5077 280.334L96.7247 284.551C103.362 291.188 112.079 294.506 120.797 294.506C129.272 294.506 137.741 291.36 144.303 285.088C150.716 290.07 158.537 292.66 166.429 292.66C172.698 292.664 178.859 291.026 184.298 287.91C190.1 284.576 195.035 279.922 198.702 274.326L201.852 269.508C204.384 268.249 206.711 266.614 208.754 264.659C213.258 260.339 216.137 254.601 216.908 248.408L219.082 230.795C220.516 231.119 222.011 231.451 223.495 231.472C228.085 231.472 232.09 228.063 232.71 223.391L237.681 185.848C237.777 185.301 237.744 184.739 237.586 184.206L237.583 184.207ZM154.496 120.839C147.569 120.839 141.934 115.203 141.934 108.277C141.934 101.351 147.569 95.7158 154.496 95.7158H180.401C191.505 112.681 197.972 132.942 197.972 154.688C197.972 161.097 197.416 167.416 196.331 173.599H190.237C187.648 173.602 185.098 172.963 182.815 171.74C180.533 170.516 178.589 168.746 177.157 166.588C175.442 164.013 174.528 160.987 174.531 157.893V140.875C174.531 129.827 165.544 120.839 154.496 120.839ZM190.653 35.3795L214.315 42.2748L213.563 44.8576C208.804 61.1888 191.645 70.6031 175.314 65.8459L160.897 61.6447C166.049 57.9615 175.202 52.8392 187.598 51.4963C188.057 51.4465 188.502 51.3069 188.907 51.0853C189.312 50.8638 189.669 50.5646 189.959 50.2049C190.248 49.8451 190.464 49.432 190.593 48.9889C190.723 48.5458 190.764 48.0816 190.714 47.6226C190.665 47.1636 190.525 46.7188 190.304 46.3137C190.082 45.9086 189.783 45.5511 189.423 45.2617C189.064 44.9723 188.65 44.7567 188.207 44.6271C187.764 44.4975 187.3 44.4566 186.841 44.5066C175.125 45.7763 166.052 49.9699 159.963 53.7814L160.503 51.9246C164.255 39.0509 177.78 31.63 190.653 35.3806L190.653 35.3795ZM142.984 26.1937C144.452 19.4308 148.466 13.6447 154.286 9.89997L155.798 8.92731L166.942 26.2488C167.9 27.7389 168.66 29.3484 169.2 31.0359C166.554 32.436 164.121 34.2057 161.974 36.2918C161.827 34.5968 161.603 32.9094 161.301 31.2351C161.134 30.3178 160.609 29.5044 159.842 28.9739C159.076 28.4434 158.13 28.2392 157.212 28.4062C156.295 28.5733 155.481 29.0979 154.951 29.8647C154.42 30.6314 154.216 31.5776 154.383 32.4949C155.251 37.2514 155.395 42.1117 154.812 46.9113C154.407 47.9073 154.054 48.9233 153.753 49.9552L152.349 54.774L146.515 45.7054C142.771 39.8853 141.517 32.956 142.985 26.1931L142.984 26.1937ZM151.314 65.8623C160.458 72.195 168.577 79.8916 175.389 88.684H154.496C143.692 88.684 134.903 97.473 134.903 108.277C134.903 119.08 143.692 127.87 154.496 127.87C161.666 127.87 167.5 133.704 167.5 140.874V157.893C167.496 162.372 168.819 166.751 171.302 170.479C173.374 173.604 176.188 176.166 179.492 177.938C182.796 179.709 186.488 180.634 190.237 180.629H194.855C191.697 193.479 186.169 205.636 178.428 216.647C174.581 212.402 169.227 209.914 163.479 209.941C158.157 209.941 153.156 212.012 149.39 215.778C145.666 219.502 143.6 224.441 143.557 229.702C136.209 226.138 127.055 227.299 120.886 233.238C116.927 237.042 114.753 242.342 114.885 247.935C112.299 246.768 109.494 246.167 106.656 246.171C101.311 246.171 96.2852 248.252 92.5059 252.032C91.6042 252.935 90.7907 253.922 90.0766 254.98C89.363 253.922 88.5495 252.935 87.6473 252.032C83.8675 248.252 78.8425 246.171 73.497 246.171C70.6597 246.167 67.8544 246.768 65.2681 247.935C65.2721 247.737 65.2792 247.54 65.2774 247.342C65.2264 241.929 63.0919 236.92 59.2675 233.238C58.2161 232.227 57.0556 231.337 55.8075 230.582C56.4327 228.016 56.749 225.384 56.7497 222.743C56.7497 219.679 59.2423 217.187 62.3061 217.187H69.2255C79.9815 217.187 88.7325 208.436 88.7325 197.68V181.074C88.7325 175.235 83.9823 170.486 78.144 170.486H52.0042C50.3817 170.486 49.0622 169.165 49.0622 167.543C49.0622 165.92 50.3817 164.601 52.0042 164.601C61.2339 164.601 68.7432 157.092 68.7432 147.862V142.788C68.7432 134.637 75.3743 128.006 83.5253 128.006H86.2932C97.1343 128.006 105.954 119.186 105.954 108.345C105.954 97.5041 97.1343 88.6845 86.2932 88.6845H57.8472C55.0382 88.6845 52.7524 86.3988 52.7524 83.5898C52.7524 76.9031 47.3126 71.4633 40.6259 71.4633H21.27C39.9538 56.008 63.9081 46.7091 89.9934 46.7091C112.752 46.7091 133.885 53.7931 151.315 65.8629L151.314 65.8623ZM13.5555 78.4939H40.6253C43.4348 78.4939 45.7206 80.7797 45.7206 83.5892C45.7206 90.2759 51.1604 95.7152 57.8466 95.7152H86.2927C93.2565 95.7152 98.9219 101.381 98.9219 108.345C98.9219 115.308 93.2565 120.974 86.2927 120.974H83.5247C71.4971 120.974 61.7114 130.759 61.7114 142.787V147.861C61.7114 153.214 57.3561 157.569 52.0036 157.569C46.504 157.569 42.0304 162.043 42.0304 167.542C42.0304 173.041 46.5046 177.516 52.0036 177.516H78.1434C79.0865 177.517 79.9907 177.892 80.6576 178.559C81.3244 179.226 81.6996 180.13 81.7007 181.073V197.679C81.7007 204.558 76.1038 210.155 69.2249 210.155H62.3055C55.3645 210.155 49.7178 215.802 49.7178 222.742C49.7178 224.533 49.535 226.306 49.1759 228.043C44.9536 227.245 40.5192 227.801 36.5958 229.704C36.553 224.443 34.487 219.503 30.7628 215.779C26.9958 212.011 21.996 209.941 16.6733 209.941H16.5714C11.2106 209.967 6.19148 212.09 2.43797 215.919L1.62703 216.745C-0.797268 213.306 -3.01957 209.728 -5.02864 206.031C-1.22942 200.638 4.99441 197.35 11.6401 197.35C17.6905 197.35 22.6136 192.428 22.6136 186.377C22.6136 180.326 17.6911 175.404 11.6401 175.404H-16.0126C-17.3298 168.577 -17.9912 161.639 -17.9878 154.686C-17.9878 124.978 -5.92688 98.0344 13.5544 78.4916L13.5555 78.4939ZM-8.4634 199.136C-10.9062 193.745 -12.894 188.159 -14.406 182.437H11.6413C13.8145 182.437 15.5835 184.206 15.5835 186.379C15.5835 188.552 13.8151 190.321 11.6413 190.321C3.94441 190.321 -3.32824 193.601 -8.4634 199.136ZM-43.0343 224.422C-43.6311 224.499 -44.2343 224.338 -44.712 223.972C-45.1897 223.606 -45.5029 223.065 -45.5831 222.469L-50.4939 185.387L-48.7097 176.817C-45.9072 163.354 -36.9113 151.992 -24.6956 146.072C-24.9096 148.939 -25.0171 151.813 -25.0179 154.688C-25.0179 162.548 -24.238 170.283 -22.7081 177.815L-24.4355 185.717C-24.525 186.127 -24.5405 186.549 -24.4812 186.964L-22.9226 197.897C-22.0331 204.134 -23.6404 210.334 -27.4466 215.354C-31.2534 220.374 -36.7882 223.594 -43.0343 224.422ZM-29.7745 247.547L-32.1523 228.287C-28.1573 226.232 -24.6411 223.292 -21.8433 219.602C-17.5706 213.967 -15.4349 207.189 -15.6734 200.224C-12.4214 207.744 -8.33743 214.939 -3.46008 221.72L-12.1419 229.937C-12.6534 230.421 -13.008 231.046 -13.1597 231.734C-13.3114 232.421 -13.2532 233.138 -12.9927 233.792C-12.7322 234.446 -12.2814 235.006 -11.6987 235.401C-11.116 235.796 -10.4282 236.006 -9.72434 236.006C-8.85715 236.006 -7.9882 235.686 -7.30793 235.043C-7.05832 234.803 4.23562 224.124 4.47469 223.888L7.46004 220.842C9.88934 218.364 13.1372 216.991 16.6071 216.973H16.6727C18.3671 216.968 20.0455 217.3 21.6108 217.948C23.1761 218.597 24.5972 219.55 25.7917 220.751C28.228 223.187 29.5698 226.427 29.5698 229.871C29.5698 233.316 28.228 236.556 25.7917 238.992L5.5241 259.259C-2.45637 267.241 -15.5825 267.383 -23.7359 259.579C-27.0713 256.381 -29.2037 252.131 -29.7745 247.546V247.547ZM-0.646996 281.81C-4.81067 279.424 -8.47336 276.173 -11.3544 272.336C-10.5634 272.394 -9.76301 272.428 -8.96379 272.418C-1.61321 272.337 5.29734 269.43 10.4958 264.232L30.7634 243.964C32.9378 241.743 35.3348 239.378 36.2132 238.481C41.179 233.516 49.3341 233.436 54.3901 238.304C56.8434 240.666 58.2128 243.9 58.2462 247.41C58.2807 251.032 56.8452 254.564 54.3081 257.101L34.2514 277.158C25.0253 286.384 10.6751 288.298 -0.646412 281.809L-0.646996 281.81ZM82.6757 275.363L78.4587 279.58C68.1807 289.858 51.6157 290.101 41.0343 280.318L59.2798 262.073C59.4766 261.877 59.6665 261.673 59.8546 261.469C63.4434 257.733 67.7987 252.826 73.497 253.204C75.2022 253.199 76.8915 253.533 78.467 254.185C80.0425 254.838 81.473 255.796 82.6757 257.005C87.7364 262.066 87.7364 270.302 82.6757 275.363ZM101.695 279.58L97.4776 275.363C92.4169 270.302 92.4169 262.066 97.4776 257.005C98.6802 255.796 100.111 254.838 101.686 254.185C103.262 253.532 104.951 253.199 106.656 253.204C112.348 252.821 116.717 257.739 120.299 261.469C120.487 261.673 120.676 261.876 120.873 262.073L139.118 280.318C128.537 290.101 111.972 289.858 101.694 279.58H101.695ZM180.8 281.81C169.478 288.298 155.128 286.385 145.902 277.159L125.845 257.102C123.308 254.565 121.873 251.033 121.907 247.411C121.94 243.901 123.31 240.667 125.763 238.305C130.82 233.436 138.974 233.517 143.933 238.474C144.865 239.412 146.724 241.277 149.043 243.601C149.159 243.722 149.272 243.846 149.39 243.966L169.658 264.234C174.857 269.431 181.767 272.338 189.118 272.419C189.917 272.429 190.717 272.395 191.508 272.337C188.627 276.174 184.964 279.425 180.801 281.811L180.8 281.81ZM209.927 247.547C209.356 252.133 207.224 256.382 203.889 259.581C195.735 267.384 182.61 267.241 174.629 259.261L154.361 238.993C151.925 236.557 150.583 233.317 150.583 229.873C150.583 226.428 151.925 223.188 154.361 220.752C155.565 219.544 156.997 218.588 158.573 217.94C160.15 217.291 161.841 216.963 163.546 216.974C167.015 216.991 170.263 218.365 172.701 220.852C174.147 222.335 176.244 224.47 176.569 224.736L187.461 235.044C187.796 235.362 188.19 235.61 188.622 235.775C189.053 235.94 189.512 236.018 189.974 236.005C190.435 235.993 190.89 235.889 191.311 235.701C191.733 235.513 192.113 235.243 192.431 234.908C193.071 234.23 193.417 233.327 193.391 232.395C193.366 231.463 192.971 230.579 192.294 229.938L183.513 221.627C188.452 214.747 192.574 207.439 195.841 199.8C195.499 206.914 197.635 213.854 201.995 219.604C204.793 223.293 208.309 226.233 212.304 228.288L209.927 247.548L209.927 247.547Z" fill="black"/>
</g>
</svg>
