<svg viewBox="101.699 358.868 1075.433 241.973" xmlns="http://www.w3.org/2000/svg"><g paint-order="stroke"><path style="stroke:none;stroke-width:0;stroke-dasharray:none;stroke-linecap:butt;stroke-dashoffset:0;stroke-linejoin:miter;stroke-miterlimit:4;fill:#3350b3;fill-rule:nonzero;opacity:1" transform="matrix(1.92115 0 0 1.92115 396.216 468.563)" d="m2.9 0-.63-10.71h1.64q.58 3.99 3.19 6.28 2.6 2.29 6.42 2.29 1.56 0 2.86-.38 1.3-.38 2.23-1.07.92-.69 1.42-1.64.51-.94.51-2.12 0-1.01-.32-1.74-.31-.74-1.19-1.43-.89-.69-2.42-1.41-1.53-.71-3.97-1.64-4.91-1.89-7.26-4.39-2.36-2.49-2.36-5.9 0-1.97.76-3.61t2.12-2.81q1.37-1.18 3.28-1.83 1.91-.65 4.22-.65 2.14 0 4.03.67 1.89.67 3.74 2.02l.75-2.1h1.01l.46 9.07h-1.63q-1.01-3.44-3.15-5.27-2.15-1.83-4.96-1.83-2.6 0-4.22 1.28-1.62 1.28-1.62 3.3 0 .88.3 1.57.29.7 1.09 1.33.8.63 2.18 1.28 1.39.65 3.57 1.45 2.94 1.13 5.02 2.29 2.08 1.15 3.4 2.47 1.33 1.33 1.96 2.8.63 1.47.63 3.23 0 2.14-.93 3.91-.92 1.76-2.58 3.02-1.66 1.26-3.95 1.98-2.29.71-5.06.71-2.52 0-4.54-.69-2.01-.7-4.15-2.25L3.91 0H2.9zm54.6-7.27-.97-2.52H44.65q-1.98 4.46-1.98 6.18 0 1.26.95 1.59.94.34 2.83.34V0H34.94v-1.68q1.01-.13 1.75-.34.73-.21 1.3-.58.57-.38.99-.99.42-.61.79-1.49l11.05-27.68h3.11L63.97-8.23q.88 2.14 1.49 3.36.61 1.22 1.3 1.87.69.65 1.6.9.9.25 2.33.38V0H54.81v-1.72q2.02-.09 2.9-.42.88-.34.88-1.35 0-.58-.29-1.51-.3-.92-.8-2.27zm-6.89-17.76-5 12.72h10l-4.83-12.72h-.17zm39.31-3.53v10.67q2.69 0 4.33-.17 1.64-.17 2.54-.69.9-.53 1.28-1.54.38-1 .59-2.73h1.55v12.31h-1.55q-.25-1.68-.67-2.69-.42-1.01-1.35-1.53-.92-.53-2.5-.67-1.57-.15-4.22-.15v8.65q0 1.35.36 2.27.36.92 1.2 1.49t2.22.8q1.39.23 3.4.23 2.4 0 4.06-.34 1.66-.33 2.75-1.17 1.09-.84 1.76-2.25.67-1.41 1.14-3.55h1.68L107.81 0H79.34v-1.68q1.38-.04 2.27-.25.88-.21 1.34-.72.46-.5.63-1.42.17-.93.17-2.4v-19.4q0-1.47-.15-2.38-.15-.9-.57-1.42-.42-.53-1.19-.72-.78-.19-2.04-.27v-1.68h26.54l.3 8.23h-1.81q-.25-1.76-.8-2.92-.54-1.15-1.51-1.85-.96-.69-2.5-.96-1.53-.27-3.76-.27h-4.74q-1.09 0-1.35.27-.25.27-.25 1.28zM152.12.42h-5.62l-18.61-26.5h-.17v18.06q0 2.1.15 3.32.15 1.21.63 1.89.48.67 1.34.88.86.21 2.25.25V0h-12.47v-1.68q1.55-.04 2.5-.27.94-.23 1.47-.86.52-.63.69-1.79.17-1.15.17-3.13v-16.88q0-1.77-.17-2.92-.17-1.16-.63-1.83-.46-.67-1.32-.94-.87-.28-2.29-.36v-1.68h11.71l16.93 24.28h.17v-16.26q0-2.06-.15-3.3-.15-1.23-.63-1.91-.48-.67-1.34-.88-.86-.21-2.25-.25v-1.68h12.47v1.68q-1.55.04-2.49.27-.95.23-1.47.86-.53.63-.7 1.81-.17 1.18-.17 3.11V.42zm25.79-26.04 6.72 18.4 5.46-13.99q.8-2.06 1.28-3.36.49-1.3.74-2.14.25-.84.33-1.35.09-.5.09-.96 0-1.01-.76-1.33-.75-.31-3.02-.31v-1.68h11.93v1.68q-3.49 0-4.83 3.4L184.8.42h-3.11l-10.04-24.53q-.84-1.97-1.51-3.23t-1.43-2q-.75-.73-1.65-1.01-.91-.27-2.13-.27v-1.72h15.88v1.72q-1.09.04-1.83.13-.73.08-1.15.27-.42.19-.59.5-.17.32-.17.78 0 .59.21 1.39.21.8.63 1.93z"/></g><g paint-order="stroke"><path style="stroke:none;stroke-width:1;stroke-dasharray:none;stroke-linecap:butt;stroke-dashoffset:0;stroke-linejoin:miter;stroke-miterlimit:4;fill:#384c2c;fill-rule:nonzero;opacity:1" transform="translate(-186.434 86.47) scale(.76712)" d="m539.68 490.643 5.973 10.347-5.99 10.375h-11.935l-5.982-10.36 5.982-10.362h11.951zm36.926 20.722 5.99-10.375-5.973-10.347H564.67l-5.982 10.361 5.982 10.361h11.935zm.017-42.078H564.67l-5.982 10.361 5.982 10.36h11.935l5.99-10.375-5.973-10.346zm-48.895 0-5.982 10.361 5.982 10.36h11.934l5.99-10.375-5.973-10.346h-11.951zm-55.435 31.385h11.952l5.982-10.36-5.982-10.361H472.31l-5.99 10.375 5.973 10.346zm141.274-10.029h-11.952l-5.982 10.361 5.982 10.361h11.935l5.99-10.375-5.973-10.347zm43.462 10.664-5.991 10.375 5.974 10.347h11.951l5.982-10.36-5.982-10.362H657.03zm-6.536-11.298 5.99-10.376-5.973-10.346h-11.951l-5.982 10.361 5.982 10.36h11.934z"/><path style="stroke:none;stroke-width:1;stroke-dasharray:none;stroke-linecap:butt;stroke-dashoffset:0;stroke-linejoin:miter;stroke-miterlimit:4;fill:#7f5026;fill-rule:nonzero;opacity:1" transform="translate(-186.434 86.47) scale(.76712)" d="m546.901 565.483-5.904 10.227 5.904 10.227-6.156 10.664h-12.313l-6.157-10.664 5.905-10.227-5.905-10.227 6.157-10.663h12.313l6.156 10.663zm-.62-43.074-6.157 10.663 6.157 10.664h12.313l6.157-10.664-6.157-10.663h-12.313zm37.154-40.808-6.157 10.664 6.157 10.663h12.313l6.156-10.663-6.156-10.664h-12.313zm35.608 19.065-6.156 10.664 6.156 10.663h12.313l6.157-10.663-6.157-10.664h-12.313zm31.633-9.944h-12.313l-6.156 10.663 6.156 10.664h12.313l6.157-10.664-6.157-10.663zm-104.395-31.793-6.157 10.664 6.06 10.495h-.19l-6.157 10.663 6.157 10.664h12.313l6.157-10.664-6.06-10.495h.19l6.157-10.663-6.157-10.664h-12.313zm-42.467 32.142 5.972-10.344-6.157-10.664h-12.313l-6.157 10.664 5.972 10.344-5.972 10.343 6.157 10.664h12.313l6.157-10.664-5.972-10.343zm-50.637-.32-6.156 10.664 6.156 10.663h12.313l6.157-10.663-6.157-10.664h-12.313zm73.909 128.137-6.157 10.664h-10.121l-6.157 10.663 6.157 10.664h12.313l6.157-10.663h10.121l6.157-10.664-6.157-10.664h-12.313z"/><path style="stroke:none;stroke-width:1;stroke-dasharray:none;stroke-linecap:butt;stroke-dashoffset:0;stroke-linejoin:miter;stroke-miterlimit:4;fill:#9ca926;fill-rule:nonzero;opacity:1" transform="translate(-186.434 86.47) scale(.76712)" d="m428.848 447.931 5.974 10.347-5.99 10.374h-11.935l-5.982-10.36 5.982-10.361h11.951zM416.898 512l-5.983 10.36 5.982 10.361h11.935l5.99-10.375L428.848 512h-11.95zm166.226-32.684h11.952l5.982-10.36-5.982-10.362H583.14l-5.99 10.376 5.973 10.346zm-73.887-21.356h11.952l5.982-10.36-5.982-10.361h-11.935l-5.99 10.374 5.973 10.347zm.017-63.434-5.99 10.375 5.973 10.347h11.952l5.982-10.361-5.982-10.361h-11.935zm12.492 42.41 5.982 10.36h11.934l5.99-10.375-5.973-10.347h-11.951l-5.982 10.362zm17.933-31.717h-11.951l-5.982 10.36 5.982 10.361h11.934l5.99-10.375-5.973-10.346zm-67.369 10.663-5.99 10.376 5.973 10.346h11.952l5.982-10.361-5.982-10.361H472.31zm11.935-21.356H472.31l-5.99 10.375 5.973 10.347h11.952l5.982-10.361-5.982-10.361zm-48.878 64.068-5.99 10.376 5.973 10.346H447.3l5.982-10.36-5.982-10.362h-11.934zm-25.01 63.435 5.983-10.36-5.982-10.362h-11.935l-5.779 10.008c-.001.24-.008.479-.009.719l5.771 9.995h11.952zm43.483-53.377h11.935l5.99-10.374-5.973-10.347H453.84l-5.982 10.36 5.982 10.361zm0-21.355h11.935l5.99-10.376-5.973-10.347H453.84l-5.982 10.362 5.982 10.36zm0-42.078-5.982 10.36 5.982 10.361h11.935l5.99-10.375-5.973-10.346H453.84zm110.831 0-5.982 10.36 5.982 10.361h11.935l5.99-10.375-5.973-10.346H564.67zm110.115 84.817-5.823-10.085H657.03l-5.991 10.375 5.973 10.346h11.952l5.894-10.208c-.022-.143-.048-.285-.07-.428zm-110.115-21.384h11.935l5.99-10.374-5.973-10.347H564.67l-5.982 10.36 5.982 10.361zm92.938-10.058h-.58l-5.991 10.376 5.973 10.346h11.952l2.56-4.435a141.129 141.129 0 0 0-14.95-35.112l-4.917 8.515 5.953 10.31zm-92.938-11.297h11.935l5.99-10.376-5.973-10.347H564.67l-5.982 10.362 5.982 10.36zm-154.324 10.995 5.983-10.361-4.226-7.318a141.397 141.397 0 0 0-8.787 17.679h7.03zm6.55-10.995h11.935l5.99-10.376-5.974-10.347h-7.333a142.225 142.225 0 0 0-8.938 13.24l4.32 7.483zm215.68-10.361 5.982 10.36h11.934l5.195-8.996a142.252 142.252 0 0 0-8.027-11.726h-9.102l-5.982 10.362zm-.557-21.054h-11.935l-5.99 10.376 5.973 10.346h11.952l5.982-10.361-5.982-10.361zm-48.879-21.356-5.99 10.375 5.973 10.347h11.952l5.982-10.361-5.982-10.361H583.14zm30.409 74.126 5.99-10.374-5.974-10.347h-11.95l-5.983 10.36 5.982 10.361h11.935zm36.943 64.07 5.99-10.376L650.51 512H638.56l-5.982 10.36 5.982 10.361h11.934zm-18.473 10.663 5.982-10.36-5.982-10.362h-11.935l-5.99 10.375 5.973 10.347h11.952zm-30.405-116.81-5.982 10.36 5.982 10.362h11.935l5.99-10.376-5.974-10.347h-11.95zm-.557-.332-5.982-10.361H583.14l-5.99 10.376 5.973 10.346h11.952l5.982-10.361z"/><path style="stroke:none;stroke-width:1;stroke-dasharray:none;stroke-linecap:butt;stroke-dashoffset:0;stroke-linejoin:miter;stroke-miterlimit:4;fill:#4d6a3a;fill-rule:nonzero;opacity:1" transform="translate(-186.434 86.47) scale(.76712)" d="m428.848 469.287 5.974 10.346-5.99 10.376h-11.935l-5.982-10.36 5.982-10.362h11.951zm24.435-43.044-5.982-10.361h-11.934l-5.99 10.376 5.973 10.346H447.3l5.982-10.361zm55.97 32.351-5.99 10.376 5.974 10.346h11.952l5.982-10.36-5.982-10.362h-11.935zm11.936-42.712h-11.935l-5.99 10.376 5.973 10.346h11.952l5.982-10.361-5.982-10.361zm-55.414 116.84 5.99-10.376L465.793 512H453.84l-5.982 10.36 5.982 10.361h11.935zM435.35 457.96H447.3l5.982-10.36-5.982-10.361h-11.934l-5.99 10.374 5.973 10.347zm55.434-52.741-5.982 10.36 5.982 10.361h11.935l5.99-10.375-5.973-10.346h-11.952zm-55.417 117.444-5.99 10.375 5.973 10.347H447.3l5.982-10.36-5.982-10.362h-11.934zm30.425-53.376H453.84l-5.982 10.361 5.982 10.36h11.935l5.99-10.375-5.973-10.346zm172.767-21.356-5.982 10.36 5.982 10.361h11.934l5.99-10.374-5.973-10.347H638.56zm-36.944-42.712-5.982 10.36 5.982 10.361h11.935l5.99-10.375-5.974-10.346h-11.95zm-18.474 32.02-5.99 10.374 5.973 10.347h11.952l5.982-10.36-5.982-10.361H583.14zm-184.735 42.487h11.952l5.982-10.36-5.982-10.361h-7.332a140.843 140.843 0 0 0-6.02 18.298l1.4 2.423zm0 20.946h11.952l5.982-10.36-5.982-10.361h-11.935l-3.252 5.632a141.525 141.525 0 0 0-1.211 7.389l4.446 7.7zm165.708-74.43-5.982-10.36h-11.934l-5.991 10.376 5.974 10.346h11.951l5.982-10.361zm67.906 53.074 5.982-10.36-5.982-10.362h-11.935l-5.99 10.376 5.973 10.346h11.952zm0-42.077h-11.935l-5.99 10.374 5.973 10.347h11.952l5.982-10.36-5.982-10.361zm-141.236 10.058h11.935l5.99-10.376-5.973-10.347h-11.952l-5.982 10.362 5.982 10.36zm110.831 21.99-5.982 10.361 5.982 10.36h11.935l5.99-10.375-5.974-10.346h-11.95z"/><path style="stroke:none;stroke-width:1;stroke-dasharray:none;stroke-linecap:butt;stroke-dashoffset:0;stroke-linejoin:miter;stroke-miterlimit:4;fill:#69a8b7;fill-rule:nonzero;opacity:1" transform="translate(-186.434 86.47) scale(.76712)" d="m484.245 522.77 5.982 10.361-5.982 10.361h-11.952l-5.973-10.346 5.99-10.375h11.935zm-30.405 10.693-5.982 10.361 5.982 10.361h11.935l5.99-10.375-5.973-10.347H453.84zm129.301 10.664-5.99 10.375 5.973 10.347h11.952l5.982-10.361-5.982-10.36H583.14zm-79.689 31.557h-11.95l-5.983 10.361 5.982 10.36h11.935l5.99-10.375-5.974-10.346zm-37.66 43.615H453.84l-4.026 6.974a142.067 142.067 0 0 0 17.467 11.14l4.485-7.768-5.974-10.346zm36.944-21.767h-11.952l-5.982 10.36 5.982 10.361h11.935l5.99-10.375-5.973-10.346zm-.017-21.99 5.99-10.376-5.973-10.346h-11.952l-5.982 10.36 5.982 10.361h11.935zm-30.409-10.059-5.99 10.375 5.973 10.347h11.952l5.982-10.361-5.982-10.36H472.31zm-.017 63.434h11.952l5.982-10.36-5.982-10.362H472.31l-5.99 10.376 5.973 10.346zm30.426 10.693 5.99-10.376-5.973-10.346h-11.952l-5.982 10.361 5.982 10.361h11.935zm110.83-85.425 5.991-10.375-5.974-10.347h-11.95l-5.983 10.361 5.982 10.361h11.935zM490.785 383.862l-5.982 10.36 5.982 10.362h11.935l5.99-10.375-5.973-10.347h-11.952zm-57.144 28.742 1.718 2.976h11.935l5.99-10.376-3.739-6.476a142.735 142.735 0 0 0-15.904 13.876zm167.45-7.61h11.934l4.506-7.804a141.976 141.976 0 0 0-17.63-10.856l-4.793 8.299 5.982 10.361zm18.986 10.253h11.935l2.257-3.909a142.708 142.708 0 0 0-16.03-13.63l-4.144 7.178 5.982 10.361zm-185.264-.014-1.39-2.406c-3.97 4.032-7.699 8.3-11.167 12.782h6.566l5.99-10.376zm-36.406 128.26h11.952l5.982-10.362-5.982-10.36h-11.935l-4.613 7.989c.282 2.179.612 4.342.991 6.489l3.605 6.243zm147.792-148.967-5.991 10.375 5.974 10.347h11.951l5.982-10.361-5.982-10.361h-11.934zm92.35 31.717h8.86a142.745 142.745 0 0 0-12.55-14.33l-2.292 3.969 5.982 10.361zm-110.82-42.38-5.982 10.36 5.982 10.361h11.934l5.99-10.375-5.973-10.347h-11.951zM564.67 554.82l-5.982 10.36 5.982 10.361h11.935l5.99-10.375-5.973-10.346H564.67zm85.822-.635 5.99-10.375-5.973-10.347H638.56l-5.982 10.361 5.982 10.361h11.934zm6.536-31.414-5.991 10.375 5.973 10.346h11.952l5.982-10.36-5.982-10.361H657.03z"/><path style="stroke:none;stroke-width:1;stroke-dasharray:none;stroke-linecap:butt;stroke-dashoffset:0;stroke-linejoin:miter;stroke-miterlimit:4;fill:#5b3a1d;fill-rule:nonzero;opacity:1" transform="translate(-186.434 86.47) scale(.76712)" d="m576.79 511.745 6.156 10.664-6.157 10.663h-12.313l-6.058-10.493-.111.192h-12.313l-6.157-10.664 6.157-10.663h12.313l6.058 10.493.111-.192h12.313zm19.37 11.9.028-.049 5.232 9.06h12.313l6.156-10.663-6.156-10.663H601.42l-.029.049-5.231-9.06h-12.313l-6.157 10.663 6.157 10.663h12.313zm-68.628-75.607-6.156 10.664 6.156 10.663h12.314l6.156-10.663-6.156-10.664h-12.314zm-98.29 63.7 5.92 10.255h12.314l6.157-10.663-6.157-10.664h-12.313l-.197.34-5.921-10.255h-12.313l-6.157 10.664 6.157 10.663h12.313l.197-.34zm55.353-73.055h-12.313l-6.156 10.664 6.02 10.427-5.538 9.592 6.157 10.663h12.313l6.157-10.663-6.02-10.428 5.537-9.591-6.157-10.664zm42.284 94.39h12.314l6.156-10.664-6.156-10.664h-12.314l-6.156 10.664 6.156 10.663zm-23.977 107.142h-12.313l-.005.01-5.718-9.903h-12.313l-4.37 7.567a140.95 140.95 0 0 0 40.26 14.056l.616-1.066-6.157-10.664zm5.855-96.61-5.855-10.142h-12.313l-6.157 10.664 6.157 10.663h12.313l.058-.1 5.855 10.143h.107l-6.028 10.44 6.156 10.664h12.313l6.157-10.663-6.157-10.664h-.106l6.028-10.441-6.157-10.664h-12.313l-.058.1zm111.626-63.547-6.157 10.664 6.157 10.663h12.313l6.157-10.663-6.157-10.664h-12.313zm-148.964 42.684h12.313l6.157-10.664-6.157-10.663H471.42l-6.156 10.663 6.156 10.664zm19.17-10.635-6.157 10.664 6.157 10.663h12.313l6.157-10.663-6.157-10.664h-12.313zm30.774 75.116H509.05l-6.156 10.663 5.964 10.33-5.965 10.331 6.157 10.664h12.313l6.157-10.664-5.964-10.33 5.964-10.33-6.157-10.664z"/><path style="stroke:none;stroke-width:1;stroke-dasharray:none;stroke-linecap:butt;stroke-dashoffset:0;stroke-linejoin:miter;stroke-miterlimit:4;fill:#b4deed;fill-rule:nonzero;opacity:1" transform="translate(-186.434 86.47) scale(.76712)" d="m508.217 372.898-5.498 9.522h-11.935l-2.46-4.26a140.924 140.924 0 0 1 19.893-5.262zm56.454 10.964-5.982 10.36 5.982 10.362h11.935l5.99-10.375-5.973-10.347H564.67zm-43.052-12.824a142 142 0 0 0-11.409 1.497h10.545l.864-1.497zm-12.365 2.132-5.99 10.375 5.973 10.346h11.952l5.982-10.36-5.982-10.361h-11.935zm-25.028 21.463 5.99-10.375-3.245-5.622a141.162 141.162 0 0 0-19.056 8.416l4.377 7.581h11.934zm-18.86 10.254 5.99-10.376-4.104-7.109a142.07 142.07 0 0 0-17.477 11.153l3.656 6.332h11.935zm117.756-11.298h11.935l4.341-7.52a141.1 141.1 0 0 0-19.199-8.14l-3.059 5.298 5.982 10.362zm-37.75-21.075-5.72 9.906h-11.935l-5.982-10.36.628-1.088c4.03-.344 8.106-.53 12.225-.53 15.562 0 30.535 2.513 44.546 7.14l-3.26 5.646H563.94l.174.302-5.982 10.361h-11.951l-5.974-10.346 5.767-9.988-.602-1.043zm12.965 1.01 5.453 9.445-5.453-9.445zM435.35 564.741h11.951l5.982-10.36-5.982-10.361h-11.934l-5.99 10.375 5.973 10.346zm159.726 42.713 5.982-10.361-5.982-10.36H583.14l-5.99 10.374 5.973 10.347h11.952zM416.34 554.38l-5.982-10.361h-11.935l-1.592 2.757a140.86 140.86 0 0 0 5.764 17.964h7.763l5.982-10.36zm12.492-.303 5.99-10.376-5.974-10.346h-11.95l-5.983 10.361 5.982 10.36h11.935zm.016 44.111h-7.36a142.722 142.722 0 0 0 11.566 13.408l1.768-3.062-5.974-10.346zm36.944-43.477H453.84l-5.982 10.361 5.982 10.36h11.935l5.99-10.375-5.973-10.346zM613.55 596.79l5.99-10.375-5.974-10.347h-11.95l-5.983 10.362 5.982 10.36h11.935zm18.47-31.414h-11.935l-5.99 10.375 5.973 10.346h11.952l5.982-10.36-5.982-10.361zm-196.672 42.41-2.235 3.87a142.748 142.748 0 0 0 15.838 13.961l4.322-7.486-5.974-10.346h-11.951zm-24.982-42.41h-7.511a141.373 141.373 0 0 0 8.92 18.253l4.565-7.907-5.974-10.346zm6.531-10.664-5.982 10.361 5.982 10.36h11.935l5.99-10.375-5.974-10.346h-11.95zm48.878 42.078 5.99-10.375-5.973-10.347H453.84l-5.982 10.362 5.982 10.36h11.935zm-18.474-10.693 5.982-10.36-5.982-10.361h-11.934l-5.99 10.375 5.973 10.346H447.3zm-12.479.318-5.974-10.347h-11.95l-4.74 8.209c2.543 4.322 5.305 8.5 8.277 12.513h8.397l5.99-10.375zm19.018 11.01-5.982 10.36 5.982 10.361h11.935l5.99-10.375-5.973-10.346H453.84zm18.47-10.693-5.99 10.375 5.973 10.347h11.952l5.982-10.361-5.982-10.36H472.31zm0-42.712-5.99 10.375 5.973 10.346h11.952l5.982-10.36-5.982-10.361H472.31zm-36.96 63.434h11.951l5.982-10.361-5.982-10.36h-11.934l-5.99 10.374 5.973 10.347zm184.716 1.377-5.982 10.36 4.441 7.692a142.715 142.715 0 0 0 16.014-13.686l-2.522-4.366h-11.951zm-18.461 10.36-5.983 10.361 4.944 8.562a142.003 142.003 0 0 0 17.588-10.96l-4.598-7.963h-11.951zm-36.934-22.4h11.935l5.99-10.376-5.973-10.347H564.67l-5.982 10.362 5.982 10.36zm-6.539-10.059h-11.934l-5.991 10.375 5.974 10.347h11.951l5.982-10.361-5.982-10.36zm25.01-21.356-5.992 10.375 5.974 10.346h11.952l5.982-10.36-5.982-10.361H583.14zm49.435 42.078 2.82 4.885a142.726 142.726 0 0 0 13.123-15.246h-9.961l-5.982 10.36zm43.084-95.015-5.982 10.36 5.474 9.482a143.14 143.14 0 0 0 1.392-19.842h-.884zm-280.657 25.904a141.086 141.086 0 0 0 1.676 7.815l1.418-2.456-3.094-5.359zm181.619 59.082H564.67l-5.982 10.36 5.982 10.361h11.935l5.99-10.375-5.973-10.346zm24.992-21.991h11.935l5.99-10.376-5.974-10.346h-11.95l-5.983 10.361 5.982 10.36zM672.043 548a141.23 141.23 0 0 0 2.674-12.82l-5.038 8.726 2.364 4.094zm-40.023 59.453 5.982-10.361-5.982-10.36h-11.935l-5.99 10.374 5.973 10.347h11.952zm-18.47 10.692 5.99-10.375-5.974-10.346h-11.95l-5.983 10.36 5.982 10.361h11.935zm-18.474-10.058H583.14l-5.99 10.376 5.973 10.346h11.952l5.982-10.361-5.982-10.36zm43.483-32.02-5.982 10.362 5.982 10.36h10.182a142.226 142.226 0 0 0 7.383-11l-5.614-9.722H638.56zm0-.634h11.934l5.99-10.376-5.973-10.346H638.56l-5.982 10.361 5.982 10.36zm-6.54-10.693 5.983-10.36-5.982-10.361h-11.935l-5.99 10.375 5.973 10.346h11.952zm19.418 11.406 5.133 8.89a141.407 141.407 0 0 0 9.584-19.251h-8.735l-5.982 10.36zm5.592-32.127-5.991 10.375 5.974 10.346h9.569a140.855 140.855 0 0 0 5.213-15.819l-2.83-4.902h-11.935z"/><path style="stroke:none;stroke-width:1;stroke-dasharray:none;stroke-linecap:butt;stroke-dashoffset:0;stroke-linejoin:miter;stroke-miterlimit:4;fill:#a97c50;fill-rule:nonzero;opacity:1" transform="translate(-186.434 86.47) scale(.76712)" d="m545.994 458.93-6.157-10.664 6.157-10.664h12.313l6.157 10.664-6.157 10.663h-12.313zm-36.944 84.39h12.313l6.157-10.663-5.932-10.275 5.932-10.275-6.157-10.663H509.05l-6.156 10.663 5.932 10.275-5.932 10.275 6.156 10.663zm12.645.807 6.156 10.663h12.313l.016-.027 5.685 9.847h-.821l-6.157 10.664 6.157 10.663h12.313l6.157-10.663-6.028-10.441h.82l6.097-10.56.073.126h12.313l5.953-10.31.023.038h12.313l6.156-10.664-6.156-10.663h-12.313l-5.953 10.311-.023-.039h-12.313l-6.096 10.56-.073-.127h-12.313l-.016.028-5.814-10.07h-12.313l-6.156 10.664zm-74.219-42.073 6.157-10.664-6.157-10.663h-12.313l-6.157 10.663 6.157 10.664h12.313zm91.717 117.16.861-1.493 5.94 10.288h12.313l6.156-10.664-6.156-10.663h-12.313l-.862 1.492-5.94-10.288H526.88l-6.156 10.664 6.156 10.663h12.314zm19.496 33.096-.382-.661h-12.313l-1.357 2.35c4.752-.333 9.44-.9 14.052-1.689zM509.05 480.088l-6.156 10.663 6.156 10.664h12.313l6.157-10.664-6.157-10.663H509.05zm35.135 173.94 1.817-3.149-6.156-10.664h-12.314l-6.069 10.512-.1-.173H509.05l-.784 1.358c8.531 1.6 17.327 2.445 26.322 2.445 3.226 0 6.424-.118 9.597-.33zm38.316-23.706.445-.77-6.157-10.664h-12.313l-5.96 10.323h-12.235l-6.157 10.663 6.157 10.664h12.313l5.96-10.322h11.988l-.444.769h-11.622l-6.157 10.664.381.66a140.95 140.95 0 0 0 40.717-13.588l-4.85-8.4h-12.066zm-92.389-180.978-6.157 10.664 6.157 10.664h12.313l6.157-10.664-6.157-10.664h-12.313z"/><path style="stroke:none;stroke-width:1;stroke-dasharray:none;stroke-linecap:butt;stroke-dashoffset:0;stroke-linejoin:miter;stroke-miterlimit:4;fill:#442812;fill-rule:nonzero;opacity:1" transform="translate(-186.434 86.47) scale(.76712)" d="m394.456 489.636 4.656-8.064h10.537l5.282 9.15-5.282 9.15h-10.554l-4.91-8.505a142.25 142.25 0 0 0-.643 4.96l2.928 5.073-3.762 6.516c-.046 1.49-.077 2.983-.077 4.484 0 1.27.018 2.534.051 3.795l3.788 6.561-2.99 5.178c.183 1.677.395 3.346.635 5.005l4.997-8.655h10.537l5.282 9.15-5.282 9.15h-10.554l-4.782-8.282a141.25 141.25 0 0 0 1.708 9.032l.449.778-.203.352c.33 1.43.69 2.85 1.063 4.263l1.782-3.086h10.537l5.282 9.15-5.282 9.15h-7.366c.4 1.024.811 2.043 1.234 3.056h6.132l5.282 9.15-3.738 6.474a141.646 141.646 0 0 0 1.787 3.046l4.606-7.978h10.553l5.274 9.136-5.29 9.164h-8.272c.751 1.03 1.515 2.049 2.293 3.057h5.995l5.274 9.135-1.372 2.377c.73.763 1.468 1.52 2.215 2.267l1.8-3.116h10.536l5.283 9.15-3.602 6.238c.818.628 1.642 1.247 2.474 1.856l3.782-6.55h10.554l5.274 9.134-4.193 7.263c.89.49 1.788.97 2.69 1.443l4.145-7.177h10.537l5.282 9.15-3.164 5.48c.976.359 1.959.703 2.944 1.04l2.875-4.978h10.553l5.275 9.135-.433.75c1.422.282 2.853.54 4.29.779h9.321l.754 1.305c1.229.115 2.462.213 3.7.297l-1.8-3.116 5.283-9.15h10.554l5.274 9.135-1.876 3.25c1.227-.067 2.449-.149 3.666-.246l.852-1.475h10.537l.052.09c1.073-.174 2.142-.359 3.207-.557l-.605-1.047 5.283-9.15h10.554l3.163 5.479a140.83 140.83 0 0 0 2.928-1.003l-3.466-6.004 5.29-9.164h10.538l4.562 7.903c.91-.463 1.811-.938 2.709-1.42l-4.617-7.997 5.283-9.15h10.554l4.312 7.47c.828-.593 1.652-1.193 2.466-1.803l-4.154-7.195 5.291-9.165h10.537l2.452 4.247c.754-.737 1.5-1.482 2.238-2.235l-2.035-3.526 5.282-9.15h7.785a142.592 142.592 0 0 0 2.293-3.056h-10.078l-5.282-9.15 5.282-9.15h10.554l5.274 9.136-3.258 5.644a142.074 142.074 0 0 0 5.249-8.272l-4.64-8.036 5.291-9.164h7.942c.423-1.013.835-2.032 1.234-3.057H657.7l-5.274-9.135 5.291-9.164h10.537l3.015 5.221c.39-1.39.755-2.791 1.104-4.199l-1.465-2.536 3.227-5.589c.492-2.64.918-5.304 1.261-7.994l-4.488-7.773 5.283-9.15h.34c.003-.407.015-.813.015-1.221 0-.614-.016-1.224-.024-1.835h-.331l-5.283-9.15 4.419-7.654c-.372-2.834-.832-5.64-1.368-8.42l-3.05-5.283 1.358-2.354a140.774 140.774 0 0 0-1.118-4.204l-2.895 5.015H657.7l-5.274-9.135 5.291-9.164h8.928c-.405-1.025-.82-2.044-1.249-3.057H657.7l-5.274-9.135 4.46-7.725a142.182 142.182 0 0 0-1.911-3.142l.1.174-5.29 9.165h-10.538l-5.282-9.15 5.282-9.15h9.63a142.43 142.43 0 0 0-2.316-3.057h-7.314l-5.282-9.15 1.812-3.139c-.742-.754-1.494-1.5-2.253-2.238l-2.214 3.835h-10.553l-5.275-9.136 3.906-6.765c-.82-.612-1.646-1.215-2.48-1.809l-4.068 7.046h-10.536l-5.283-9.15 4.345-7.525c-.903-.483-1.81-.957-2.725-1.42l-4.274 7.402h-10.554l-5.274-9.135 3.171-5.493c-.977-.344-1.96-.678-2.946-1l-2.867 4.965H565.36l-5.283-9.15.285-.494a141.67 141.67 0 0 0-6.612-1.049h-6.88l-.461-.798a143.04 143.04 0 0 0-3.655-.254l1.49 2.58-5.29 9.165h-10.538l-5.282-9.15 1.43-2.478c-1.245.087-2.486.19-3.723.308l-.362.627h-5.053c-2.767.374-5.51.827-8.224 1.358l.099.17-5.291 9.165h-10.537l-2.58-4.468c-.982.334-1.96.678-2.932 1.033l2.857 4.949-5.282 9.15h-10.554l-3.855-6.678c-.9.468-1.794.943-2.682 1.43l3.912 6.776-5.291 9.164h-10.537l-3.533-6.119a142.44 142.44 0 0 0-2.465 1.84l3.344 5.793-5.283 9.15h-10.553l-1.556-2.694c-.745.741-1.48 1.492-2.209 2.25l1.14 1.972-5.292 9.164h-5.507a142.43 142.43 0 0 0-2.316 3.057h7.84l5.274 9.135-5.29 9.165h-10.537l-4.427-7.667c-.607 1-1.2 2.007-1.783 3.022l3.555 6.158-5.282 9.15h-5.869a140.857 140.857 0 0 0-1.249 3.057h7.118l5.282 9.15-5.282 9.15h-10.554l-1.652-2.862c-.375 1.402-.733 2.81-1.066 4.23l.093.16-.224.388a141.313 141.313 0 0 0-1.79 9.204zm23.13 2.629h10.553l5.274 9.135-5.29 9.165h-10.537l-5.283-9.15 5.283-9.15zm124.01 19.828 5.29-9.165h10.537l5.283 9.15-5.283 9.15h-10.554l-5.274-9.135zm2.648 10.663-5.29 9.164h-10.538l-5.282-9.15 5.282-9.15h10.554l5.274 9.136zm-5.29-12.191h-10.538l-5.282-9.15 5.282-9.15h10.554l5.274 9.135-5.29 9.165zm-13.192 1.513-5.283 9.15h-10.553l-5.275-9.135 5.291-9.165h10.537l5.283 9.15zm-15.82 12.206h10.537l5.283 9.15-5.283 9.15h-10.554l-5.274-9.135 5.291-9.165zm0 21.357h10.537l5.283 9.15-5.283 9.15h-10.553l-5.275-9.136 5.291-9.164zm13.192-1.514 5.282-9.15h10.554l5.274 9.135-5.29 9.165h-10.538l-5.282-9.15zm23.752 1.514h10.537l5.283 9.15-5.283 9.15h-10.554l-5.274-9.136 5.291-9.164zm-.017-3.057-5.274-9.135 5.291-9.165h10.537l5.283 9.15-5.283 9.15h-10.554zm13.208-19.813 5.283-9.15h10.554l5.274 9.135-5.291 9.164H565.36l-5.283-9.15zm15.82-12.206H565.36l-5.283-9.15 5.283-9.15h10.554l5.274 9.135-5.291 9.165zm-18.474-10.694h-10.554l-5.274-9.135 5.291-9.164h10.537l5.283 9.15-5.283 9.15zm-10.554-21.356-5.274-9.135 5.291-9.164h10.537l5.283 9.15-5.283 9.15h-10.554zm-2.625 1.529-5.29 9.164h-10.538l-5.282-9.15 5.282-9.15h10.554l5.274 9.136zm-23.765-1.529h-10.553l-5.275-9.135 5.291-9.164h10.537l5.283 9.15-5.283 9.15zm-10.537 3.057h10.537l5.283 9.15-5.283 9.15h-10.553l-5.275-9.136 5.291-9.164zm-2.641 19.828-5.291 9.165h-10.537l-5.283-9.15 5.283-9.15h10.554l5.274 9.135zm-5.275 12.22 5.275 9.136-5.291 9.164h-10.537l-5.283-9.15 5.283-9.15h10.553zm-13.208 19.814-5.282 9.15h-10.554l-5.274-9.135 5.29-9.165h10.538l5.282 9.15zm2.655 1.543h10.553l5.275 9.135-5.291 9.165h-10.537l-5.283-9.15 5.283-9.15zm10.553 21.356 5.275 9.136-5.291 9.164h-10.537l-5.283-9.15 5.283-9.15h10.553zm7.916 10.664h10.537l5.283 9.15-5.283 9.15h-10.554l-5.274-9.136 5.291-9.164zm13.192-1.514 5.282-9.15h10.554l5.274 9.136-5.29 9.164h-10.538l-5.282-9.15zm23.752 1.514h10.537l5.283 9.15-5.283 9.15h-10.554l-5.274-9.136 5.291-9.164zm13.191-1.514 5.283-9.15h10.554l5.274 9.136-5.291 9.164H565.36l-5.283-9.15zm15.82-12.206H565.36l-5.283-9.15 5.283-9.15h10.554l5.274 9.135-5.291 9.165zm2.642-19.828 5.29-9.165h10.538l5.282 9.15-5.282 9.15h-10.554l-5.274-9.135zm5.274-12.221-5.274-9.135 5.29-9.165h10.538l5.282 9.15-5.282 9.15h-10.554zm0-21.357-5.274-9.135 5.29-9.164h10.538l5.282 9.15-5.282 9.15h-10.554zm-7.916-10.663H565.36l-5.283-9.15 5.283-9.15h10.554l5.274 9.136-5.291 9.164zm0-21.356H565.36l-5.283-9.15 5.283-9.15h10.554l5.274 9.135-5.291 9.165zm-18.474-10.693h-10.554l-5.274-9.135 5.291-9.164h10.537l5.283 9.15-5.283 9.15zm-13.179 1.528-5.29 9.165h-10.538l-5.282-9.15 5.282-9.15h10.554l5.274 9.135zm-23.765-1.528h-10.553l-5.275-9.135 5.291-9.164h10.537l5.283 9.15-5.283 9.15zm-13.178 1.528-5.291 9.165h-10.537l-5.283-9.15 5.283-9.15h10.553l5.275 9.135zm-5.275 12.221 5.275 9.136-5.291 9.164h-10.537l-5.283-9.15 5.283-9.15h10.553zm-13.208 19.814-5.282 9.15h-10.554l-5.274-9.136 5.29-9.164h10.538l5.282 9.15zm-15.82 12.206h10.538l5.282 9.15-5.282 9.15h-10.554l-5.274-9.135 5.29-9.165zm-2.641 19.828-5.291 9.164h-10.537l-5.283-9.15 5.283-9.15h10.554l5.274 9.136zm-5.274 12.22 5.274 9.136-5.291 9.165h-10.537l-5.283-9.15 5.283-9.15h10.554zm7.916 10.665h10.537l5.282 9.15-5.282 9.15h-10.554l-5.274-9.136 5.29-9.164zm0 21.356h10.537l5.282 9.15-5.282 9.15h-10.554l-5.274-9.136 5.29-9.164zm18.474 10.692h10.553l5.275 9.136-5.291 9.164h-10.537l-5.283-9.15 5.283-9.15zm18.47 10.664h10.536l5.283 9.15-5.283 9.15h-10.553l-5.275-9.135 5.291-9.165zm13.19-1.513 5.283-9.15h10.554l5.274 9.135-5.29 9.164h-10.538l-5.282-9.15zm23.753 1.513h10.537l5.283 9.15-5.283 9.15h-10.554l-5.274-9.135 5.291-9.165zm13.191-1.513 5.283-9.15h10.554l5.274 9.135-5.291 9.164H565.36l-5.283-9.15zm18.462-10.679 5.29-9.164h10.538l5.282 9.15-5.282 9.15h-10.554l-5.274-9.136zm5.274-12.22-5.274-9.136 5.29-9.164h10.538l5.282 9.15-5.282 9.15h-10.554zm13.208-19.814 5.283-9.15h10.553l5.275 9.135-5.292 9.165h-10.536l-5.283-9.15zm15.82-12.207h-10.537l-5.283-9.15 5.283-9.15h10.553l5.274 9.136-5.29 9.164zm2.641-19.827 5.291-9.165h10.537l5.283 9.15-5.283 9.15h-10.553l-5.275-9.135zm-2.642-1.528h-10.536l-5.283-9.15 5.283-9.15h10.553l5.275 9.135-5.292 9.165zm0-21.357h-10.536l-5.283-9.15 5.283-9.15h10.553l5.275 9.136-5.292 9.164zm-18.473-10.693h-10.554l-5.274-9.135 5.29-9.164h10.538l5.282 9.15-5.282 9.15zm-10.554-21.356-5.274-9.135 5.29-9.164h10.538l5.282 9.15-5.282 9.15h-10.554zm-7.916-10.663H565.36l-5.283-9.15 5.283-9.15h10.554l5.274 9.135-5.291 9.165zm-18.474-10.693h-10.554l-5.274-9.135 5.291-9.165h10.537l5.283 9.15-5.283 9.15zm-13.179 1.528-5.29 9.165h-10.538l-5.282-9.15 5.282-9.15h10.554l5.274 9.135zm-23.765-1.528h-10.553l-5.275-9.135 5.291-9.165h10.537l5.283 9.15-5.283 9.15zm-13.178 1.528-5.291 9.165h-10.537l-5.283-9.15 5.283-9.15h10.553l5.275 9.135zm-18.483 10.678-5.282 9.15h-10.554l-5.274-9.135 5.29-9.164h10.538l5.282 9.15zm-15.82 12.207h10.538l5.282 9.15-5.282 9.15h-10.554l-5.274-9.136 5.29-9.164zm-2.641 19.828-5.291 9.164h-10.537l-5.283-9.15 5.283-9.15h10.554l5.274 9.136zm-5.274 12.22 5.274 9.136-5.291 9.165h-10.537l-5.283-9.15 5.283-9.15h10.554zm-13.208 19.814-5.283 9.15h-10.553l-5.275-9.135 5.291-9.165h10.537l5.283 9.15zm-15.82 12.206h10.537l5.283 9.15-5.283 9.15h-10.554l-5.274-9.135 5.291-9.165zm0 21.357h10.537l5.283 9.15-5.283 9.15h-10.553l-5.275-9.136 5.291-9.164zm18.474 10.692h10.554l5.274 9.136-5.291 9.164h-10.537l-5.283-9.15 5.283-9.15zm10.554 21.356 5.274 9.136-5.291 9.164h-10.537l-5.283-9.15 5.283-9.15h10.554zm7.916 10.664h10.537l5.282 9.15-5.282 9.15h-10.554l-5.274-9.135 5.29-9.165zm18.474 10.693h10.553l5.275 9.135-5.291 9.164h-10.537l-5.283-9.15 5.283-9.15zm18.47 10.663h10.536l5.283 9.15-5.283 9.15h-10.554l-5.274-9.135 5.291-9.165zm13.19-1.514 5.283-9.15h10.554l5.274 9.136-5.29 9.164h-10.538l-5.282-9.15zm23.753 1.514h10.537l5.283 9.15-5.283 9.15h-10.554l-5.274-9.135 5.291-9.165zm13.191-1.514 5.283-9.15h10.554l5.274 9.136-5.291 9.164H565.36l-5.283-9.15zm18.462-10.677 5.29-9.165h10.538l5.282 9.15-5.282 9.15h-10.554l-5.274-9.135zm18.482-10.678 5.283-9.15h10.553l5.275 9.135-5.292 9.164h-10.536l-5.283-9.15zm15.82-12.207h-10.537l-5.283-9.15 5.283-9.15h10.553l5.274 9.136-5.29 9.164zm2.641-19.828 5.291-9.164h10.537l5.283 9.15-5.283 9.15h-10.553l-5.275-9.136zm5.274-12.221-5.274-9.135 5.291-9.165h10.537l5.283 9.15-5.283 9.15h-10.554zm13.209-19.813 5.282-9.15h10.554l5.274 9.135-5.29 9.164h-10.538l-5.282-9.15zm15.82-12.206h-10.538l-5.282-9.15 5.282-9.15h10.554l5.274 9.135-5.29 9.165zM631.31 499.87h-10.554l-5.274-9.135 5.291-9.164h10.537l5.283 9.15-5.283 9.15zm-10.554-21.356-5.274-9.135 5.291-9.164h10.537l5.283 9.15-5.283 9.15h-10.554zm-7.916-10.663h-10.536l-5.283-9.15 5.283-9.15h10.553l5.275 9.135-5.292 9.165zm0-21.356h-10.536l-5.283-9.15 5.283-9.15h10.553l5.275 9.135-5.292 9.165zm-18.473-10.693h-10.554l-5.274-9.135 5.29-9.165h10.538l5.282 9.15-5.282 9.15zm-18.47-10.664H565.36l-5.283-9.15 5.283-9.15h10.554l5.274 9.136-5.291 9.164zm-18.474-10.692h-10.554l-5.274-9.136 5.291-9.164h10.537l5.283 9.15-5.283 9.15zm-13.179 1.528-5.29 9.164h-10.538l-5.282-9.15 5.282-9.15h10.554l5.274 9.136zm-23.765-1.528h-10.553l-5.275-9.136 5.291-9.164h10.537l5.283 9.15-5.283 9.15zm-13.178 1.528-5.291 9.164h-10.537l-5.283-9.15 5.283-9.15h10.553l5.275 9.136zm-18.483 10.678-5.282 9.15h-10.554l-5.274-9.135 5.29-9.165h10.538l5.282 9.15zm-18.461 10.678-5.291 9.165h-10.537l-5.283-9.15 5.283-9.15h10.554l5.274 9.135zm-5.274 12.221 5.274 9.135-5.291 9.165h-10.537l-5.283-9.15 5.283-9.15h10.554zm-13.208 19.814-5.283 9.15h-10.554l-5.274-9.136 5.291-9.164h10.537l5.283 9.15zm-15.82 12.206h10.537l5.283 9.15-5.283 9.15h-10.554l-5.274-9.136 5.291-9.164zm-36.96 39.656-5.274-9.135 5.29-9.165h10.538l5.282 9.15-5.282 9.15h-10.554zm13.208 1.543 5.283-9.15h10.553l5.274 9.135-5.29 9.164h-10.537l-5.283-9.15zm0 21.356 5.283-9.15h10.553l5.274 9.135-5.29 9.165h-10.537l-5.283-9.15zm15.82 30.506h-10.537l-5.283-9.15 5.283-9.15h10.553l5.274 9.136-5.29 9.164zm2.641 1.528 5.291-9.164h10.537l5.283 9.15-5.283 9.15h-10.554l-5.274-9.136zm5.275 30.492-5.275-9.135 5.291-9.165h10.537l5.283 9.15-5.283 9.15h-10.553zm29.027 10.692h-10.537l-5.283-9.15 5.283-9.15h10.554l5.274 9.136-5.291 9.164zm7.916 10.664-5.274-9.135 5.29-9.165h10.538l5.282 9.15-5.282 9.15h-10.554zm29.028 10.693h-10.537l-5.283-9.15 5.283-9.15h10.554l5.274 9.135-5.291 9.165zm18.47 10.663h-10.554l-5.275-9.135 5.291-9.164h10.537l5.283 9.15-5.283 9.15zm18.473-10.663h-10.537l-5.282-9.15 5.282-9.15h10.554l5.274 9.135-5.29 9.165zm18.47 10.663h-10.554l-5.274-9.135 5.291-9.164h10.537l5.283 9.15-5.283 9.15zm18.474-10.663H565.36l-5.283-9.15 5.283-9.15h10.554l5.274 9.135-5.291 9.165zm18.47-10.693h-10.554l-5.275-9.135 5.292-9.165h10.537l5.282 9.15-5.282 9.15zm18.473-10.664h-10.536l-5.283-9.15 5.283-9.15h10.553l5.274 9.136-5.29 9.164zm23.753-19.842-5.283 9.15h-10.553l-5.275-9.135 5.291-9.165h10.537l5.283 9.15zm-5.283-12.207h-10.554l-5.274-9.135 5.291-9.164h10.537l5.283 9.15-5.283 9.15zm23.765-19.827-5.29 9.164h-10.538l-5.282-9.15 5.282-9.15h10.554l5.274 9.136zm-5.29-12.192h-10.538l-5.282-9.15 5.282-9.15h10.554l5.274 9.135-5.29 9.165zm23.752-19.843-5.283 9.15H657.7l-5.274-9.135 5.291-9.165h10.537l5.283 9.15zm0-21.356-5.283 9.15H657.7l-5.274-9.135 5.291-9.165h10.537l5.283 9.15zm-15.82-30.506h10.537l5.283 9.15-5.283 9.15H657.7l-5.274-9.136 5.291-9.164zm-2.642-1.528-5.29 9.164h-10.538l-5.282-9.15 5.282-9.15h10.554l5.274 9.136zm-5.274-30.492 5.274 9.135-5.29 9.165h-10.538l-5.282-9.15 5.282-9.15h10.554zm-13.208-1.543-5.283 9.15h-10.554l-5.274-9.135 5.291-9.164h10.537l5.283 9.15zm-15.82-30.506h10.537l5.283 9.15-5.283 9.15h-10.554l-5.274-9.135 5.291-9.165zm-7.916-10.663 5.274 9.135-5.29 9.164h-10.537l-5.283-9.15 5.283-9.15h10.553zm-29.027-10.693h10.537l5.282 9.15-5.282 9.15h-10.554l-5.274-9.136 5.29-9.164zm-7.916-10.664 5.274 9.136-5.291 9.164H565.36l-5.283-9.15 5.283-9.15h10.554zm-29.028-10.692h10.537l5.283 9.15-5.283 9.15h-10.554l-5.274-9.136 5.291-9.164zm-7.916 10.692 5.274 9.136-5.29 9.164h-10.538l-5.282-9.15 5.282-9.15h10.554zm-29.028-10.692h10.537l5.283 9.15-5.283 9.15h-10.553l-5.275-9.136 5.291-9.164zm-18.47 10.692h10.554l5.275 9.136-5.291 9.164h-10.537l-5.283-9.15 5.283-9.15zM473 396.147h10.537l5.282 9.15-5.282 9.15h-10.554l-5.274-9.136 5.29-9.164zm-18.47 10.693h10.554l5.274 9.135-5.291 9.164h-10.537l-5.283-9.15 5.283-9.15zm-23.765 19.828 5.291-9.165h10.537l5.283 9.15-5.283 9.15h-10.554l-5.274-9.135zm5.291 12.192h10.537l5.283 9.15-5.283 9.15h-10.554l-5.274-9.136 5.291-9.164zm-23.752 19.842 5.283-9.15h10.553l5.274 9.135-5.29 9.165h-10.537l-5.283-9.15zm5.283 12.206h10.553l5.274 9.136-5.29 9.164h-10.537l-5.283-9.15 5.283-9.15z"/><path style="stroke:none;stroke-width:1;stroke-dasharray:none;stroke-linecap:butt;stroke-dashoffset:0;stroke-linejoin:miter;stroke-miterlimit:4;fill:#442812;fill-rule:nonzero;opacity:1" transform="translate(-186.434 86.47) scale(.76712)" d="M534.008 376.46c36.637 0 71.081 14.267 96.988 40.173 25.906 25.907 40.174 60.35 40.174 96.988s-14.268 71.082-40.174 96.988c-25.907 25.907-60.35 40.174-96.988 40.174s-71.082-14.267-96.988-40.174c-25.907-25.906-40.174-60.35-40.174-96.988 0-36.637 14.267-71.081 40.174-96.988 25.906-25.906 60.35-40.174 96.988-40.174m0-9c-80.723 0-146.162 65.44-146.162 146.162 0 80.723 65.439 146.162 146.162 146.162 80.723 0 146.162-65.439 146.162-146.162 0-80.723-65.44-146.162-146.162-146.162z"/></g><g paint-order="stroke"><path style="stroke:#fff;stroke-width:0;stroke-dasharray:none;stroke-linecap:butt;stroke-dashoffset:0;stroke-linejoin:miter;stroke-miterlimit:4;fill:#3350b3;fill-rule:nonzero;opacity:1" transform="matrix(1.92115 0 0 1.92115 399.726 542.59)" d="M6.5-17.75v7.17q1.35 0 2.26-.16.92-.16 1.45-.51.54-.35.78-.9t.24-1.3h.87v6.82h-.87q0-.75-.22-1.3-.21-.54-.75-.91-.53-.36-1.45-.55-.91-.19-2.31-.19v5.65q0 .83.2 1.37.2.54.69.87.49.34 1.29.48.79.14 1.97.14 1.33 0 2.25-.19.93-.19 1.55-.64.63-.45 1-1.19.38-.74.62-1.84h.96L16.65 0H1.13v-.95Q2-.98 2.54-1.1q.54-.13.84-.43.3-.3.4-.85.1-.55.1-1.42v-11.65q0-.87-.09-1.41-.09-.54-.35-.85-.26-.32-.76-.43-.5-.11-1.3-.16v-.95h14.45l.22 4.4h-.87q-.15-1-.49-1.64-.34-.64-.93-1.01-.58-.38-1.48-.53-.9-.15-2.18-.15H6.93q-.43 0-.43.43zM25.95-7.28v3.35q0 1.03.05 1.62.05.58.26.9.22.31.63.41.41.1 1.14.15V0h-6.55v-.85q.7-.05 1.11-.15.41-.1.64-.4.22-.3.28-.85.07-.55.07-1.5v-3.33q0-2.97-.15-3.62-.08-.33-.19-.54-.11-.21-.34-.32-.22-.12-.58-.15-.34-.04-.89-.04v-.8l4-.95.3 2.47h.1q.95-1.17 2.22-1.82 1.28-.65 2.78-.65 1.15 0 2.09.37.96.38 1.46 1.03.42.57.6 1.49.17.91.17 2.51v4.17q0 1.03.06 1.62.07.58.27.9.19.31.61.41.41.1 1.08.15V0H30.7v-.85q.7-.03 1.11-.14.42-.11.63-.41.21-.3.27-.86.07-.57.07-1.49v-3.3q0-1.42-.15-2.4t-.49-1.58q-.34-.6-.89-.86t-1.32-.26q-1.13 0-2.07.59-.93.58-1.46 1.61-.12.25-.21.48-.09.22-.14.52-.05.3-.07.69-.03.38-.03.98zM46.53.28 42.3-10.15q-.3-.75-.54-1.19-.23-.44-.51-.66-.27-.23-.61-.29-.34-.06-.81-.09v-.87h6.62v.87l-.82.05q-.33.03-.52.12-.18.08-.26.25-.07.16-.07.46 0 .42.11.8.11.37.24.75l2.65 7.25h.1l2.27-5.38q.53-1.25.75-2 .23-.75.23-1.32 0-.58-.3-.78-.3-.2-1.3-.2v-.87h4.97v.87q-.4 0-.72.2-.33.2-.58.5-.2.28-.41.74-.21.46-.43.96-.21.51-.38.99-.18.49-.33.79L47.98.28h-1.45zM63.05-13.5v9.52q0 .98.09 1.57.09.58.34.92.25.34.69.46.46.13 1.21.15V0H58.2v-.88q.75-.02 1.23-.16.47-.14.73-.45.27-.31.35-.87.09-.57.09-1.44V-7q0-1.45-.04-2.39-.04-.94-.13-1.29-.13-.57-.58-.78-.45-.22-1.7-.22v-.87l4.9-.95zm-2.87-5.07q0-.66.45-1.11.45-.45 1.1-.45.65 0 1.1.45.45.45.45 1.11 0 .64-.45 1.09-.45.45-1.1.45-.65 0-1.1-.45-.45-.45-.45-1.09zM73.83-4.83v.85q0 1.03.05 1.63.05.6.26.91.21.31.61.41.4.1 1.13.15V0h-6.65v-.88q.72-.02 1.15-.13.42-.12.65-.42.22-.3.28-.86.07-.56.07-1.51v-2.93q0-1.7-.04-2.65t-.25-1.4q-.21-.45-.66-.53-.45-.09-1.25-.09v-.88l4.37-.95.35 3.1h.1q.33-.75.81-1.37.49-.63 1.07-1.06.57-.44 1.2-.69.62-.25 1.27-.25.8 0 1.26.39.47.38.47 1.03 0 .6-.38.94-.37.34-1.07.34-.4 0-.68-.1-.27-.1-.49-.21-.21-.12-.4-.22-.18-.1-.41-.1-.67 0-1.35.87-.67.86-1.05 2.18-.2.73-.31 1.64-.11.91-.11 1.91zm16.62-8.67q1.43 0 2.7.51 1.28.51 2.24 1.41.96.9 1.52 2.14.57 1.24.57 2.71 0 1.53-.57 2.8-.56 1.28-1.52 2.2-.96.93-2.24 1.45-1.27.53-2.7.53-1.4 0-2.66-.51-1.26-.52-2.21-1.44-.95-.93-1.5-2.21-.55-1.29-.55-2.82 0-1.47.55-2.72.55-1.25 1.5-2.15.95-.9 2.21-1.4 1.26-.5 2.66-.5zm0 1.2q-.92 0-1.69.4-.76.4-1.3 1.14-.54.73-.82 1.77-.29 1.04-.29 2.29 0 1.3.29 2.35.28 1.05.82 1.79.54.73 1.29 1.13.75.4 1.7.4t1.73-.4q.77-.4 1.32-1.15.55-.75.85-1.8.3-1.05.3-2.32 0-1.25-.3-2.27-.3-1.03-.85-1.77t-1.32-1.15q-.78-.41-1.73-.41zm16.03 5.02v3.35q0 1.03.05 1.62.05.58.26.9.21.31.62.41.42.1 1.14.15V0H102v-.85q.7-.05 1.11-.15.42-.1.64-.4.23-.3.29-.85.06-.55.06-1.5v-3.33q0-2.97-.15-3.62-.07-.33-.19-.54-.11-.21-.33-.32-.23-.12-.58-.15-.35-.04-.9-.04v-.8l4-.95.3 2.47h.1q.95-1.17 2.23-1.82 1.27-.65 2.77-.65 1.15 0 2.1.37.95.38 1.45 1.03.43.57.6 1.49.18.91.18 2.51v4.17q0 1.03.06 1.62.06.58.26.9.2.31.61.41.42.1 1.09.15V0h-6.47v-.85q.7-.03 1.11-.14.41-.11.62-.41.22-.3.28-.86.06-.57.06-1.49v-3.3q0-1.42-.15-2.4t-.49-1.58q-.33-.6-.88-.86t-1.33-.26q-1.12 0-2.06.59-.94.58-1.46 1.61-.13.25-.22.48-.08.22-.13.52-.05.3-.08.69-.02.38-.02.98zm19.75.1V-4q0 1.05.05 1.65.05.6.26.91.21.31.61.41.4.1 1.13.15V0h-6.65v-.88q.72-.05 1.15-.15.42-.1.65-.4.22-.3.28-.86.07-.56.07-1.51V-7q0-1.43-.04-2.38t-.14-1.3q-.07-.32-.17-.51t-.33-.3q-.22-.11-.59-.15-.36-.04-.93-.04v-.87l4.07-.95.33 2.5h.12q1.13-1.28 2.36-1.89 1.24-.61 2.74-.61 1.58 0 2.65.64 1.08.63 1.5 1.83h.1q.93-1.17 2.25-1.82 1.33-.65 2.83-.65 1.17 0 2.13.39.97.38 1.47 1.06.45.57.63 1.51.19.94.19 2.56V-4q0 1.02.06 1.62.07.6.27.93.2.32.61.42.41.1 1.14.15V0h-6.65v-.88q.7-.02 1.12-.13.43-.12.65-.43.23-.31.29-.86.06-.55.06-1.5v-3.15q0-1.43-.15-2.41-.15-.99-.5-1.6-.35-.62-.91-.89-.56-.28-1.36-.28-1.1 0-2.07.62-.96.61-1.51 1.63-.12.25-.21.49t-.14.53q-.05.28-.06.68-.01.4-.01 1V-4q0 1.02.05 1.62.05.6.26.93.21.32.64.42.42.1 1.15.15V0h-6.65v-.88q.7-.05 1.12-.15.43-.1.64-.4.21-.3.27-.86.07-.56.07-1.51v-3.15q0-1.45-.15-2.44t-.49-1.6q-.34-.61-.89-.87-.55-.27-1.35-.27-1.12 0-2.11.62-.99.61-1.49 1.63-.12.25-.21.49t-.14.53q-.05.28-.06.68-.01.4-.01 1zm35.97 4.15.78.7Q160.85.25 157.7.25q-1.47 0-2.67-.49t-2.07-1.37q-.86-.89-1.33-2.13-.48-1.24-.48-2.74 0-1.52.5-2.82.5-1.3 1.41-2.23.92-.92 2.18-1.45 1.26-.52 2.76-.52 2.43 0 3.75 1.31 1.33 1.31 1.33 3.76 0 .35-.14.43-.14.07-.64.07h-8.22q-.05.2-.08.49-.02.29-.02.64 0 1.3.31 2.36.31 1.06.9 1.81.59.75 1.4 1.17.81.41 1.81.41 1.05 0 1.95-.46.9-.47 1.85-1.52zm-7.95-6.05h4.6q.5 0 .8-.02.3-.03.45-.1.15-.08.2-.21.05-.14.05-.37 0-1.15-.74-1.83-.73-.69-2.01-.69-2.7 0-3.35 3.22zm17.8 1.8v3.35q0 1.03.05 1.62.05.58.26.9.22.31.63.41.41.1 1.14.15V0h-6.55v-.85q.7-.05 1.11-.15.41-.1.64-.4.22-.3.28-.85.07-.55.07-1.5v-3.33q0-2.97-.15-3.62-.08-.33-.19-.54-.11-.21-.34-.32-.22-.12-.57-.15-.35-.04-.9-.04v-.8l4-.95.3 2.47h.1q.95-1.17 2.22-1.82 1.28-.65 2.78-.65 1.15 0 2.1.37.95.38 1.45 1.03.42.57.6 1.49.17.91.17 2.51v4.17q0 1.03.06 1.62.07.58.27.9.2.31.61.41.41.1 1.09.15V0h-6.48v-.85q.7-.03 1.11-.14.42-.11.63-.41.21-.3.27-.86.07-.57.07-1.49v-3.3q0-1.42-.15-2.4t-.49-1.58q-.34-.6-.89-.86t-1.32-.26q-1.13 0-2.07.59-.93.58-1.46 1.61-.12.25-.21.48-.09.22-.14.52-.05.3-.07.69-.03.38-.03.98zm16.73-4.4h-1.5v-.92q1.32-.78 2.07-1.55.75-.78 1.15-1.85h.73v3.15h3.35v1.17h-3.35v7.6q0 .88.08 1.48.09.6.29.96.2.36.53.51.32.15.82.15.63 0 1.06-.26.44-.26.87-.89l.62.48q-.35.92-1.21 1.41-.86.49-2.14.49-1.65 0-2.51-.79-.86-.79-.86-2.26v-8.88zm18.07 6.25V-7.4q-1.42.55-2.41 1.07-.99.53-1.59 1.05-.6.53-.86 1.05-.26.53-.26 1.08 0 .82.55 1.35.55.52 1.45.52.65 0 1.21-.32.56-.33.99-.89.42-.56.67-1.32.25-.77.25-1.62zm-3.6-1.47 3.6-1.57V-9.5q0-3.05-2.6-3.05-.42 0-.72.07-.3.08-.5.25-.2.18-.37.5-.16.33-.31.8-.27.73-.54.97-.26.23-.76.23-1.25 0-1.25-1.25 0-1.2 1.28-1.86 1.27-.66 3.62-.66 2.5 0 3.55.89 1.05.88 1.05 3.01V-4q0 2.85 1.13 2.85.35 0 .67-.09.33-.09.55-.46l.35.6q-.3.57-1.1.96t-1.67.39q-1.1 0-1.64-.7-.54-.7-.54-1.98h-.12q-.65 1.23-1.8 1.94-1.15.72-2.55.72-1.58 0-2.48-.81-.9-.8-.9-2.15 0-.6.21-1.15.22-.54.69-1.05.48-.5 1.25-.98.78-.49 1.9-.99zm16.35-13.85V-3.9q0 .95.08 1.52.07.58.31.9.24.33.67.45.44.13 1.17.15V0h-6.9v-.88q.75-.02 1.2-.16.45-.14.71-.44.26-.3.35-.83.09-.54.09-1.42V-14.5q0-1.35-.04-2.26-.04-.92-.11-1.24-.13-.57-.59-.78-.46-.2-1.66-.2v-.85l4.72-.92zm31.65 3.05.45-1.55h.7l.23 5.75h-.93q-.55-2.2-2.12-3.45-1.58-1.25-3.8-1.25-1.53 0-2.73.6t-2.02 1.72q-.83 1.13-1.27 2.75-.43 1.63-.43 3.68 0 4.02 1.67 6.19 1.68 2.16 4.85 2.16 4.83 0 6.2-5.13h1.03V0h-.88l-.57-1.98Q249 .25 245.28.25q-2.13 0-3.84-.68-1.71-.67-2.93-1.91-1.21-1.24-1.87-3.01-.66-1.78-.66-3.95 0-2.28.7-4.15.7-1.88 1.96-3.23t3.02-2.08q1.77-.74 3.89-.74 1.5 0 2.83.43 1.32.42 2.87 1.37zm13.8 4.2q1.43 0 2.7.51 1.28.51 2.24 1.41.96.9 1.52 2.14.57 1.24.57 2.71 0 1.53-.57 2.8-.56 1.28-1.52 2.2-.96.93-2.24 1.45-1.27.53-2.7.53-1.4 0-2.66-.51-1.26-.52-2.21-1.44-.95-.93-1.5-2.21-.55-1.29-.55-2.82 0-1.47.55-2.72.55-1.25 1.5-2.15.95-.9 2.21-1.4 1.26-.5 2.66-.5zm0 1.2q-.92 0-1.69.4-.76.4-1.3 1.14-.53.73-.82 1.77-.29 1.04-.29 2.29 0 1.3.29 2.35t.82 1.79q.54.73 1.29 1.13.75.4 1.7.4t1.73-.4q.77-.4 1.32-1.15.55-.75.85-1.8.3-1.05.3-2.32 0-1.25-.3-2.27-.3-1.03-.85-1.77t-1.32-1.15q-.78-.41-1.73-.41zm16.03 5.02v3.35q0 1.03.05 1.62.05.58.26.9.21.31.62.41.42.1 1.14.15V0h-6.55v-.85q.7-.05 1.11-.15.42-.1.64-.4.23-.3.29-.85.06-.55.06-1.5v-3.33q0-2.97-.15-3.62-.07-.33-.19-.54-.11-.21-.33-.32-.23-.12-.58-.15-.35-.04-.9-.04v-.8l4-.95.3 2.47h.1q.95-1.17 2.23-1.82 1.27-.65 2.77-.65 1.15 0 2.1.37.95.38 1.45 1.03.43.57.6 1.49.18.91.18 2.51v4.17q0 1.03.06 1.62.06.58.26.9.2.31.61.41.42.1 1.09.15V0h-6.47v-.85q.7-.03 1.11-.14.41-.11.62-.41.22-.3.28-.86.06-.57.06-1.49v-3.3q0-1.42-.15-2.4t-.49-1.58q-.33-.6-.88-.86t-1.33-.26q-1.12 0-2.06.59-.94.58-1.46 1.61-.13.25-.22.48-.08.22-.13.52-.05.3-.08.69-.02.38-.02.98zm16.87 6.4-.5.88h-.55v-4.3h.63q.97 3.52 3.55 3.52 1 0 1.58-.48.59-.49.59-1.49 0-.38-.11-.64t-.43-.55q-.31-.29-.87-.66-.56-.38-1.49-.95-.85-.53-1.47-.98-.63-.45-1.05-.91-.43-.46-.64-.99-.21-.52-.21-1.22 0-.85.28-1.56.29-.72.79-1.22t1.18-.78q.67-.29 1.47-.29.68 0 1.4.21.73.21 1.28.56l.5-.52h.47v3.6h-.65q-.55-1.53-1.2-2.18-.65-.65-1.6-.65-.85 0-1.36.45-.51.45-.51 1.25 0 .43.13.74.14.31.44.61t.76.62q.47.31 1.12.71 1.07.67 1.83 1.2.77.52 1.24 1.04.48.51.7 1.06.23.55.23 1.25 0 1.77-1.15 2.79Q303.18.25 301.3.25q-1.95 0-3.35-1.13zm22.68-5.92v-2.45q0-1.03-.05-1.61-.05-.59-.27-.9-.21-.32-.62-.43-.41-.11-1.14-.19v-.87h4.53v7.67q0 1.43.03 2.33.04.9.12 1.35.05.32.16.51t.34.3q.22.11.58.15.37.04.94.04v.87l-4.12.31-.28-3.01h-.1q-.95 1.55-2.19 2.27-1.23.71-2.58.71-1.05 0-2.04-.4t-1.49-1.08q-.42-.55-.61-1.52-.19-.98-.19-2.53v-3.97q0-1.03-.05-1.61-.05-.59-.26-.9-.21-.32-.63-.43-.41-.11-1.13-.19v-.87h4.52v6.82q0 2.73.64 3.95.64 1.23 2.04 1.23 2.2 0 3.42-2.88.13-.29.2-.54.08-.26.13-.56.05-.3.07-.67.03-.38.03-.9zm12.8-13.95V-3.9q0 .95.07 1.52.08.58.31.9.24.33.68.45.44.13 1.16.15V0h-6.9v-.88q.75-.02 1.2-.16.45-.14.71-.44.27-.3.35-.83.09-.54.09-1.42V-14.5q0-1.35-.04-2.26-.03-.92-.11-1.24-.12-.57-.59-.78-.46-.2-1.66-.2v-.85l4.73-.92zm7.8 9.07h-1.5v-.92q1.32-.78 2.07-1.55.75-.78 1.15-1.85h.73v3.15h3.35v1.17h-3.35v7.6q0 .88.08 1.48.09.6.29.96.2.36.53.51.32.15.82.15.63 0 1.06-.26.44-.26.87-.89l.62.48q-.35.92-1.21 1.41-.86.49-2.14.49-1.65 0-2.51-.79-.86-.79-.86-2.26v-8.88zm15.04-1.82v9.52q0 .98.09 1.57.09.58.34.92.25.34.7.46.45.13 1.2.15V0h-7.17v-.88q.75-.02 1.22-.16.48-.14.74-.45t.35-.87q.08-.57.08-1.44V-7q0-1.45-.03-2.39-.04-.94-.14-1.29-.13-.57-.58-.78-.44-.22-1.69-.22v-.87l4.89-.95zm-2.87-5.07q0-.66.45-1.11.45-.45 1.1-.45.65 0 1.1.45.45.45.45 1.11 0 .64-.45 1.09-.45.45-1.1.45-.65 0-1.1-.45-.45-.45-.45-1.09zm13.5 11.29v3.35q0 1.03.05 1.62.05.58.26.9.21.31.63.41.41.1 1.13.15V0h-6.55v-.85q.7-.05 1.12-.15.41-.1.63-.4.23-.3.29-.85.06-.55.06-1.5v-3.33q0-2.97-.15-3.62-.07-.33-.18-.54-.12-.21-.34-.32-.23-.12-.58-.15-.35-.04-.9-.04v-.8l4-.95.3 2.47h.1q.95-1.17 2.23-1.82 1.27-.65 2.77-.65 1.15 0 2.1.37.95.38 1.45 1.03.43.57.6 1.49.18.91.18 2.51v4.17q0 1.03.06 1.62.06.58.26.9.2.31.62.41.41.1 1.08.15V0h-6.47v-.85q.7-.03 1.11-.14.41-.11.63-.41.21-.3.27-.86.06-.57.06-1.49v-3.3q0-1.42-.15-2.4t-.48-1.58q-.34-.6-.89-.86t-1.33-.26q-1.12 0-2.06.59-.94.58-1.46 1.61-.13.25-.21.48-.09.22-.14.52-.05.3-.08.69-.02.38-.02.98zm21.07 1.9q1.05 0 1.64-.95.59-.95.59-2.67 0-1.7-.59-2.64-.59-.94-1.66-.94-1.08 0-1.71.95-.64.95-.64 2.6 0 1.65.65 2.65t1.72 1zm-1.37 2.93q.6.05 1.1.1l.99.1q.48.05.97.12.49.08 1.06.15 1.8.28 2.89 1.39Q394.7.53 394.7 2.2q0 2.1-1.66 3.2-1.67 1.1-4.82 1.1-1.4 0-2.56-.25-1.16-.25-1.99-.71-.82-.46-1.28-1.12-.47-.64-.47-1.42 0-.52.18-.98.17-.44.47-.78.3-.34.72-.54.41-.2.86-.2.85 0 1.52.53-.67.15-1.1.73-.42.59-.42 1.34 0 1.1 1.09 1.7 1.08.6 3.08.6 4.28 0 4.28-2.62 0-1-.68-1.67-.67-.66-1.6-.78-.6-.08-1.23-.17-.64-.08-1.25-.16-.62-.08-1.14-.13-.53-.05-.85-.1-1.4-.15-2.13-.75-.72-.6-.72-1.65 0-.87.72-1.54.73-.68 1.83-.86v-.1q-.55-.22-1.03-.63-.47-.42-.81-.94-.34-.53-.54-1.14-.2-.61-.2-1.26 0-.95.37-1.75.36-.8 1.02-1.39.66-.59 1.56-.92.9-.34 1.98-.34 1.1 0 2.07.34.98.33 1.68.98.85-.7 1.5-1.01.65-.31 1.22-.31.9 0 1.44.41.54.41.54 1.11 0 .43-.29.68-.29.25-.71.25-.35 0-.58-.13-.22-.12-.41-.26-.19-.14-.39-.26-.2-.13-.5-.13-.6 0-1.22.43.6.92.6 2.32 0 2.13-1.33 3.34-1.32 1.21-3.97 1.41-1.53.13-2.13.33-.6.2-.6.72 0 .4.45.59.45.19 1.33.24z"/></g></svg>